<svg width="392" height="302" viewBox="0 0 392 302" fill="none" xmlns="http://www.w3.org/2000/svg">
<path d="M382 93.62C379.384 86.9324 376.087 80.5319 372.16 74.52C354.78 48 322.56 30.45 295 17C211 -24 141 21 102 67C63 113 17 137 12 187C6.99997 237 36 292 116 301C196 310 259 249 313 256C395.52 266.69 403 146.89 382 93.62Z" fill="#A0A0A0"/>
<path opacity="0.7" d="M382 93.62C379.384 86.9324 376.087 80.5319 372.16 74.52C354.78 48 322.56 30.45 295 17C211 -24 141 21 102 67C63 113 17 137 12 187C6.99997 237 36 292 116 301C196 310 259 249 313 256C395.52 266.69 403 146.89 382 93.62Z" fill="white"/>
<path d="M189.86 108.55C180.3 102 166 100.87 166 100.87C187 97.58 207.14 104.17 207.14 104.17C207.14 104.17 193.74 94.29 184.14 94.29C174.54 94.29 159.27 93.19 159.27 93.19C165 86.61 186 78.93 186 78.93C186 78.93 170.69 78.93 164 80.03C157.31 81.13 155.39 88.8 155.39 88.8C155.39 88.8 153.48 84.41 139.13 81.12C124.78 77.83 121 88.8 121 88.8H134.39C139.18 88.8 145.87 95.39 145.87 95.39C145.87 95.39 130.57 95.39 124.87 98.68C119.93 101.51 113.59 113.26 111.87 116.49C115.806 96.2587 121.398 76.3851 128.59 57.07L128.97 56.78C138.38 50 142.42 46 142.42 46L158.61 73L157.26 50C157.26 50 170.74 54.05 174.79 58.09C178.84 62.13 191 75.66 191 75.66C191 75.66 185.6 55.44 178.86 48.66C172.12 41.88 160 33.86 160 33.86C160 33.86 174.84 33.86 180.23 36.56C185.62 39.26 201.76 50 201.76 50C201.76 50 191 31.16 182.88 27.12C174.76 23.08 153.21 23.07 153.21 23.07C153.21 23.07 162.65 14.98 169.39 14.98H188.27C188.27 14.98 182.88 1.49999 162.65 5.53999C142.42 9.57999 139.73 15 139.73 15C139.73 15 137.03 5.55999 127.59 4.21999C118.15 2.87999 96.5899 2.87 96.5899 2.87C96.5899 2.87 126.25 12.31 134.34 20.4C134.34 20.4 112.77 21.75 99.2799 21.75C85.7899 21.75 66.9199 33.88 66.9199 33.88C66.9199 33.88 95.2399 25.79 124.92 29.88C124.92 29.88 104.7 31.22 91.2099 39.32C77.7199 47.42 64.2099 66.32 64.2099 66.32C64.2099 66.32 76.3499 54.19 92.5299 50.14C108.71 46.09 131.64 40.7 131.64 40.7C131.64 40.7 108.71 59.48 106 68.92C103.29 78.36 95.2099 94.54 95.2099 94.54C95.2099 94.54 114.54 69.84 125.41 59.74C116.41 84.54 105.06 124.49 103.66 170.63C99.6599 154.27 87.9999 120.41 57.4899 103.44C63.2699 105.02 71.5999 107.32 78.3199 109.24C89.7999 112.53 98.4099 122.41 98.4099 122.41C98.4099 122.41 88.8399 107.05 79.2699 100.46C69.6999 93.87 55.3499 92.78 55.3499 92.78C76.3499 89.49 96.4899 96.07 96.4899 96.07C96.4899 96.07 83.0999 86.2 73.4899 86.2C63.8799 86.2 48.6199 85.1 48.6199 85.1C54.3599 78.52 75.4099 70.84 75.4099 70.84C75.4099 70.84 60.0999 70.84 53.4099 71.93C46.7199 73.02 44.7999 80.71 44.7999 80.71C44.7999 80.71 42.8899 76.32 28.5299 73.03C14.1699 69.74 10.3599 80.71 10.3599 80.71H23.7999C28.5799 80.71 35.2799 87.3 35.2799 87.3C35.2799 87.3 19.9699 87.3 14.2799 90.59C8.58989 93.88 0.889893 109.24 0.889893 109.24C0.889893 109.24 12.3699 100.46 16.1999 98.24C20.0299 96.02 30.5499 96.04 30.5499 96.04C30.5499 96.04 21.9399 102.63 17.1499 108.11C12.3599 113.59 8.53989 130.11 8.53989 130.11C8.53989 130.11 17.1499 119.11 20.0199 115.85C22.8899 112.59 32.4599 109.26 32.4599 109.26L31.4599 127.92L42.9499 105.92C45.9152 109.079 49.1106 112.014 52.5099 114.7C59.2099 120.18 76.4299 145.42 76.4299 145.42C76.4299 145.42 70.6899 132.25 68.7799 124.57C67.1999 118.25 55.9099 106.73 51.9699 102.86C90.9699 121.16 101.29 167.22 103.17 177.86H86.9999L90.5599 209.19H119L122.55 177.86H105.85C106.85 171.48 110.43 152.43 119.85 135.13C119.36 136.95 119.08 138.13 119.08 138.13C119.08 138.13 127.69 127.13 130.57 123.87C133.45 120.61 143 117.33 143 117.33L142 136L153.48 114C156.448 117.16 159.646 120.095 163.05 122.78C169.74 128.27 186.96 153.5 186.96 153.5C186.96 153.5 181.22 140.33 179.31 132.65C177.4 124.97 161.13 109.65 161.13 109.65C161.13 109.65 177.4 114.04 188.88 117.33C200.36 120.62 209 130.5 209 130.5C209 130.5 199.43 115.14 189.86 108.55ZM105.79 167.7C106.504 150.705 108.49 133.788 111.73 117.09C113.54 115.71 123.25 108.35 126.73 106.36C130.56 104.17 141.08 104.17 141.08 104.17C141.08 104.17 132.47 110.75 127.68 116.24C125.62 118.61 123.73 123.03 122.25 127.24C113.18 140.92 108.27 157 105.79 167.7Z" fill="#A0A0A0"/>
<path opacity="0.5" d="M189.86 108.55C180.3 102 166 100.87 166 100.87C187 97.58 207.14 104.17 207.14 104.17C207.14 104.17 193.74 94.29 184.14 94.29C174.54 94.29 159.27 93.19 159.27 93.19C165 86.61 186 78.93 186 78.93C186 78.93 170.69 78.93 164 80.03C157.31 81.13 155.39 88.8 155.39 88.8C155.39 88.8 153.48 84.41 139.13 81.12C124.78 77.83 121 88.8 121 88.8H134.39C139.18 88.8 145.87 95.39 145.87 95.39C145.87 95.39 130.57 95.39 124.87 98.68C119.93 101.51 113.59 113.26 111.87 116.49C115.806 96.2587 121.398 76.3851 128.59 57.07L128.97 56.78C138.38 50 142.42 46 142.42 46L158.61 73L157.26 50C157.26 50 170.74 54.05 174.79 58.09C178.84 62.13 191 75.66 191 75.66C191 75.66 185.6 55.44 178.86 48.66C172.12 41.88 160 33.86 160 33.86C160 33.86 174.84 33.86 180.23 36.56C185.62 39.26 201.76 50 201.76 50C201.76 50 191 31.16 182.88 27.12C174.76 23.08 153.21 23.07 153.21 23.07C153.21 23.07 162.65 14.98 169.39 14.98H188.27C188.27 14.98 182.88 1.49999 162.65 5.53999C142.42 9.57999 139.73 15 139.73 15C139.73 15 137.03 5.55999 127.59 4.21999C118.15 2.87999 96.5899 2.87 96.5899 2.87C96.5899 2.87 126.25 12.31 134.34 20.4C134.34 20.4 112.77 21.75 99.2799 21.75C85.7899 21.75 66.9199 33.88 66.9199 33.88C66.9199 33.88 95.2399 25.79 124.92 29.88C124.92 29.88 104.7 31.22 91.2099 39.32C77.7199 47.42 64.2099 66.32 64.2099 66.32C64.2099 66.32 76.3499 54.19 92.5299 50.14C108.71 46.09 131.64 40.7 131.64 40.7C131.64 40.7 108.71 59.48 106 68.92C103.29 78.36 95.2099 94.54 95.2099 94.54C95.2099 94.54 114.54 69.84 125.41 59.74C116.41 84.54 105.06 124.49 103.66 170.63C99.6599 154.27 87.9999 120.41 57.4899 103.44C63.2699 105.02 71.5999 107.32 78.3199 109.24C89.7999 112.53 98.4099 122.41 98.4099 122.41C98.4099 122.41 88.8399 107.05 79.2699 100.46C69.6999 93.87 55.3499 92.78 55.3499 92.78C76.3499 89.49 96.4899 96.07 96.4899 96.07C96.4899 96.07 83.0999 86.2 73.4899 86.2C63.8799 86.2 48.6199 85.1 48.6199 85.1C54.3599 78.52 75.4099 70.84 75.4099 70.84C75.4099 70.84 60.0999 70.84 53.4099 71.93C46.7199 73.02 44.7999 80.71 44.7999 80.71C44.7999 80.71 42.8899 76.32 28.5299 73.03C14.1699 69.74 10.3599 80.71 10.3599 80.71H23.7999C28.5799 80.71 35.2799 87.3 35.2799 87.3C35.2799 87.3 19.9699 87.3 14.2799 90.59C8.58989 93.88 0.889893 109.24 0.889893 109.24C0.889893 109.24 12.3699 100.46 16.1999 98.24C20.0299 96.02 30.5499 96.04 30.5499 96.04C30.5499 96.04 21.9399 102.63 17.1499 108.11C12.3599 113.59 8.53989 130.11 8.53989 130.11C8.53989 130.11 17.1499 119.11 20.0199 115.85C22.8899 112.59 32.4599 109.26 32.4599 109.26L31.4599 127.92L42.9499 105.92C45.9152 109.079 49.1106 112.014 52.5099 114.7C59.2099 120.18 76.4299 145.42 76.4299 145.42C76.4299 145.42 70.6899 132.25 68.7799 124.57C67.1999 118.25 55.9099 106.73 51.9699 102.86C90.9699 121.16 101.29 167.22 103.17 177.86H86.9999L90.5599 209.19H119L122.55 177.86H105.85C106.85 171.48 110.43 152.43 119.85 135.13C119.36 136.95 119.08 138.13 119.08 138.13C119.08 138.13 127.69 127.13 130.57 123.87C133.45 120.61 143 117.33 143 117.33L142 136L153.48 114C156.448 117.16 159.646 120.095 163.05 122.78C169.74 128.27 186.96 153.5 186.96 153.5C186.96 153.5 181.22 140.33 179.31 132.65C177.4 124.97 161.13 109.65 161.13 109.65C161.13 109.65 177.4 114.04 188.88 117.33C200.36 120.62 209 130.5 209 130.5C209 130.5 199.43 115.14 189.86 108.55ZM105.79 167.7C106.504 150.705 108.49 133.788 111.73 117.09C113.54 115.71 123.25 108.35 126.73 106.36C130.56 104.17 141.08 104.17 141.08 104.17C141.08 104.17 132.47 110.75 127.68 116.24C125.62 118.61 123.73 123.03 122.25 127.24C113.18 140.92 108.27 157 105.79 167.7Z" fill="white"/>
<path d="M246.07 120.07C253.26 108.07 255.86 93.24 252.07 79.79C248.14 65.71 236.91 53.61 222.82 49.71C206.82 45.29 189.74 51.38 175.45 59.81C161.16 68.24 148.27 79.13 133 85.69C128.61 87.57 123.49 89.06 119.2 87C105.38 80.36 126.48 68.41 131.2 65.53C142.999 58.2891 155.406 52.089 168.28 47C186.75 39.7 206.7 34.68 226.38 37.27C246.06 39.86 265.38 51.2 273.49 69.34C279.98 83.94 278.57 100.73 276.12 116.52C275.34 121.58 274.32 126.92 270.86 130.69C265.71 136.3 256.95 136.55 249.44 135.2C246.66 134.71 243.55 133.76 242.36 131.2C240.92 128.07 243.15 124.6 245.02 121.71C245.38 121.19 245.73 120.643 246.07 120.07Z" fill="#A0A0A0"/>
<mask id="mask0_117_776" style="mask-type:luminance" maskUnits="userSpaceOnUse" x="114" y="36" width="165" height="100">
<path d="M246.07 120.07C253.26 108.07 255.86 93.24 252.07 79.79C248.14 65.71 236.91 53.61 222.82 49.71C206.82 45.29 189.74 51.38 175.45 59.81C161.16 68.24 148.27 79.13 133 85.69C128.61 87.57 123.49 89.06 119.2 87C105.38 80.36 126.48 68.41 131.2 65.53C142.999 58.2891 155.406 52.089 168.28 47C186.75 39.7 206.7 34.68 226.38 37.27C246.06 39.86 265.38 51.2 273.49 69.34C279.98 83.94 278.57 100.73 276.12 116.52C275.34 121.58 274.32 126.92 270.86 130.69C265.71 136.3 256.95 136.55 249.44 135.2C246.66 134.71 243.55 133.76 242.36 131.2C240.92 128.07 243.15 124.6 245.02 121.71C245.38 121.19 245.73 120.643 246.07 120.07Z" fill="white"/>
</mask>
<g mask="url(#mask0_117_776)">
<path d="M140.89 59.92C137.63 61.72 134.4 63.58 131.22 65.53C126.51 68.41 105.41 80.36 119.22 87C123.51 89.06 128.63 87.57 133.02 85.69C139.571 82.7603 145.86 79.2777 151.82 75.28C149.89 66.36 145.5 62 140.89 59.92Z" fill="white"/>
</g>
<path d="M246.07 120.07C253.26 108.07 255.86 93.24 252.07 79.79C248.14 65.71 236.91 53.61 222.82 49.71C206.82 45.29 189.74 51.38 175.45 59.81C161.16 68.24 148.27 79.13 133 85.69C128.61 87.57 123.49 89.06 119.2 87C105.38 80.36 126.48 68.41 131.2 65.53C142.999 58.2891 155.406 52.089 168.28 47C186.75 39.7 206.7 34.68 226.38 37.27C246.06 39.86 265.38 51.2 273.49 69.34C279.98 83.94 278.57 100.73 276.12 116.52C275.34 121.58 274.32 126.92 270.86 130.69C265.71 136.3 256.95 136.55 249.44 135.2C246.66 134.71 243.55 133.76 242.36 131.2C240.92 128.07 243.15 124.6 245.02 121.71C245.38 121.19 245.73 120.643 246.07 120.07Z" stroke="#263238" stroke-width="1.5" stroke-miterlimit="10"/>
<path d="M246.07 120.07C253.26 108.07 255.86 93.24 252.07 79.79C248.14 65.71 236.91 53.61 222.82 49.71C206.82 45.29 189.74 51.38 175.45 59.81C161.16 68.24 148.27 79.13 133 85.69C128.61 87.57 123.49 89.06 119.2 87C105.38 80.36 126.48 68.41 131.2 65.53C142.999 58.2891 155.406 52.089 168.28 47C186.75 39.7 206.7 34.68 226.38 37.27C246.06 39.86 265.38 51.2 273.49 69.34C279.98 83.94 278.57 100.73 276.12 116.52C275.34 121.58 274.32 126.92 270.86 130.69C265.71 136.3 256.95 136.55 249.44 135.2C246.66 134.71 243.55 133.76 242.36 131.2C240.92 128.07 243.15 124.6 245.02 121.71C245.38 121.19 245.73 120.643 246.07 120.07Z" fill="#A0A0A0"/>
<mask id="mask1_117_776" style="mask-type:luminance" maskUnits="userSpaceOnUse" x="114" y="36" width="165" height="100">
<path d="M246.07 120.07C253.26 108.07 255.86 93.24 252.07 79.79C248.14 65.71 236.91 53.61 222.82 49.71C206.82 45.29 189.74 51.38 175.45 59.81C161.16 68.24 148.27 79.13 133 85.69C128.61 87.57 123.49 89.06 119.2 87C105.38 80.36 126.48 68.41 131.2 65.53C142.999 58.2891 155.406 52.089 168.28 47C186.75 39.7 206.7 34.68 226.38 37.27C246.06 39.86 265.38 51.2 273.49 69.34C279.98 83.94 278.57 100.73 276.12 116.52C275.34 121.58 274.32 126.92 270.86 130.69C265.71 136.3 256.95 136.55 249.44 135.2C246.66 134.71 243.55 133.76 242.36 131.2C240.92 128.07 243.15 124.6 245.02 121.71C245.38 121.19 245.73 120.643 246.07 120.07Z" fill="white"/>
</mask>
<g mask="url(#mask1_117_776)">
<path d="M241.88 50.26C238.82 56.2 241.88 57.69 241.88 57.69C241.88 57.69 241.58 55.22 243.47 50.83C244.411 48.3658 246.282 46.3694 248.68 45.27C248.68 45.27 244.94 44.31 241.88 50.26Z" fill="#263238"/>
<path d="M225.37 43.29C223.25 48.54 225.76 50.03 225.76 50.03C225.625 47.9403 225.942 45.8459 226.69 43.89C227.96 40 230.52 39.1 230.52 39.1C230.52 39.1 227.5 38 225.37 43.29Z" fill="#263238"/>
<path d="M206.24 41.14C204.12 46.39 206.63 47.88 206.63 47.88C206.487 45.7908 206.801 43.6955 207.55 41.74C208.83 37.85 211.38 36.95 211.38 36.95C211.38 36.95 208.36 35.89 206.24 41.14Z" fill="#263238"/>
<path d="M262.75 57.31C262.75 57.31 260 53.91 253.16 56.83C246.32 59.75 248.09 63.14 248.09 63.14C248.09 63.14 249.52 60.85 254.24 58.44C256.83 56.9958 259.873 56.5918 262.75 57.31Z" fill="#263238"/>
<path d="M259.55 69.59C262.034 67.9703 265.039 67.3521 267.96 67.86C267.96 67.86 264.96 64.66 258.35 68.07C251.74 71.48 253.75 74.72 253.75 74.72C253.75 74.72 255 72.33 259.55 69.59Z" fill="#263238"/>
<path d="M263 81C254 83.2 255.2 87.8 255.2 87.8C255.2 87.8 257.54 85.24 263.84 83.23C270.14 81.22 274.3 83.64 274.3 83.64C274.3 83.64 272 78.83 263 81Z" fill="#263238"/>
<path d="M262.86 101.76C253.8 103.58 254.78 108.23 254.78 108.23C254.78 108.23 257.23 105.77 263.61 104.02C269.99 102.27 274.04 104.86 274.04 104.86C274.04 104.86 271.92 99.93 262.86 101.76Z" fill="#263238"/>
<path d="M140.89 59.92C137.63 61.72 134.4 63.58 131.22 65.53C126.51 68.41 105.41 80.36 119.22 87C123.51 89.06 128.63 87.57 133.02 85.69C139.571 82.7604 145.86 79.2778 151.82 75.28C149.89 66.36 145.5 62 140.89 59.92Z" fill="white"/>
</g>
<path d="M246.07 120.07C253.26 108.07 255.86 93.24 252.07 79.79C248.14 65.71 236.91 53.61 222.82 49.71C206.82 45.29 189.74 51.38 175.45 59.81C161.16 68.24 148.27 79.13 133 85.69C128.61 87.57 123.49 89.06 119.2 87C105.38 80.36 126.48 68.41 131.2 65.53C142.999 58.2891 155.406 52.089 168.28 47C186.75 39.7 206.7 34.68 226.38 37.27C246.06 39.86 265.38 51.2 273.49 69.34C279.98 83.94 278.57 100.73 276.12 116.52C275.34 121.58 274.32 126.92 270.86 130.69C265.71 136.3 256.95 136.55 249.44 135.2C246.66 134.71 243.55 133.76 242.36 131.2C240.92 128.07 243.15 124.6 245.02 121.71C245.38 121.19 245.73 120.643 246.07 120.07Z" stroke="#263238" stroke-width="1.5" stroke-miterlimit="10"/>
<path d="M230 242.57C230 242.57 272.15 246.3 263.08 250.04C254.01 253.78 247.08 252.17 210.79 256.97C174.5 261.77 122.22 261.78 98.21 261.78C74.2 261.78 67.8 266.05 81.67 266.05C95.54 266.05 123.82 266.05 178.78 268.18C233.74 270.31 298.78 283.12 331.9 269.78C365.02 256.44 332.97 244.7 332.97 244.7C332.97 244.7 345.78 242.04 335.11 237.77C324.44 233.5 283.35 229.23 264.11 226.56C244.87 223.89 234.24 229.76 247.57 229.76C260.9 229.76 323.87 236.17 315.87 241.5C307.87 246.83 268.92 240.97 256.11 238.3C243.3 235.63 226.77 238.3 230 242.57Z" fill="#263238"/>
<path d="M275.67 220.8C275.67 220.8 279.06 237.44 284.29 246.38C289.52 255.32 300.01 254.7 301.55 247.61C303.09 240.52 296.01 231.61 294.16 224.81C292.31 218.01 292.62 206.01 292.62 206.01C292.62 206.01 275.05 204.47 275.67 220.8Z" fill="#A0A0A0"/>
<mask id="mask2_117_776" style="mask-type:luminance" maskUnits="userSpaceOnUse" x="275" y="205" width="27" height="49">
<path d="M275.67 220.8C275.67 220.8 279.06 237.44 284.29 246.38C289.52 255.32 300.01 254.7 301.55 247.61C303.09 240.52 296.01 231.61 294.16 224.81C292.31 218.01 292.62 206.01 292.62 206.01C292.62 206.01 275.05 204.47 275.67 220.8Z" fill="white"/>
</mask>
<g mask="url(#mask2_117_776)">
<path d="M281.35 240.19C282.18 242.321 283.162 244.39 284.29 246.38C289.53 255.32 300.01 254.7 301.55 247.61C302.7 242.36 299.1 236.09 296.41 230.44C293.286 230.681 290.272 231.7 287.642 233.403C285.012 235.105 282.849 237.439 281.35 240.19Z" fill="white"/>
</g>
<path d="M275.67 220.8C275.67 220.8 279.06 237.44 284.29 246.38C289.52 255.32 300.01 254.7 301.55 247.61C303.09 240.52 296.01 231.61 294.16 224.81C292.31 218.01 292.62 206.01 292.62 206.01C292.62 206.01 275.05 204.47 275.67 220.8Z" stroke="#263238" stroke-width="1.5" stroke-miterlimit="10"/>
<path d="M290.46 241.45C290.46 241.45 294.77 247 293.54 252.55" stroke="#263238" stroke-width="1.5" stroke-miterlimit="10" stroke-linecap="round"/>
<path d="M295.7 239.29C297.58 240.361 299.015 242.067 299.749 244.102C300.482 246.137 300.465 248.367 299.7 250.39" stroke="#263238" stroke-width="1.5" stroke-miterlimit="10" stroke-linecap="round"/>
<path d="M265.8 229.43C265.8 229.43 256.87 238.68 247.31 241.43C237.75 244.18 228.2 243.59 229.44 239.27C230.68 234.95 234.98 233.42 240.53 233.42C246.08 233.42 257.53 222.01 257.53 222.01C257.53 222.01 269.81 214.33 265.8 229.43Z" fill="#A0A0A0" stroke="#263238" stroke-width="1.5" stroke-miterlimit="10"/>
<path d="M157.93 184.13C157.93 184.13 144.68 190.29 142.21 197.07C140.605 201.691 139.371 206.433 138.52 211.25C138.52 211.25 121.87 218.95 109.24 223.25C96.61 227.55 83.66 229.1 76.24 234.34C68.82 239.58 68.53 245.44 72.85 249.75C77.17 254.06 85.79 252.53 88.57 250.98C91.35 249.43 97.81 243.28 106.44 241.74C115.07 240.2 140.96 245.44 156.06 242.35C171.16 239.26 184.06 234.35 187.5 234.35C190.94 234.35 204.5 236.2 213.39 230.35C222.28 224.5 216.47 197.35 209.69 184.12C202.91 170.89 167.18 179.5 157.93 184.13Z" fill="#A0A0A0"/>
<mask id="mask3_117_776" style="mask-type:luminance" maskUnits="userSpaceOnUse" x="70" y="177" width="148" height="76">
<path d="M157.93 184.13C157.93 184.13 144.68 190.29 142.21 197.07C140.605 201.691 139.371 206.433 138.52 211.25C138.52 211.25 121.87 218.95 109.24 223.25C96.61 227.55 83.66 229.1 76.24 234.34C68.82 239.58 68.53 245.44 72.85 249.75C77.17 254.06 85.79 252.53 88.57 250.98C91.35 249.43 97.81 243.28 106.44 241.74C115.07 240.2 140.96 245.44 156.06 242.35C171.16 239.26 184.06 234.35 187.5 234.35C190.94 234.35 204.5 236.2 213.39 230.35C222.28 224.5 216.47 197.35 209.69 184.12C202.91 170.89 167.18 179.5 157.93 184.13Z" fill="white"/>
</mask>
<g mask="url(#mask3_117_776)">
<path d="M189.36 208.53C184.01 199.67 179.62 183.03 171.11 179.77C166.581 180.777 162.165 182.237 157.93 184.13C157.93 184.13 156.55 184.77 154.59 185.87C151.44 189.48 151.59 193.4 154.74 195.87C159.94 199.87 178.4 221.26 173.21 219.52C172.353 219.209 171.539 218.789 170.79 218.27C165.21 214.62 156.6 205.2 150.13 202.22C142.63 198.75 157.05 217.79 157.05 223.56C157.05 229.33 151.28 224.14 146.05 217.79C140.82 211.44 139.7 217.22 142.59 223.56C145.48 229.9 141.43 232.79 129.32 232.79C117.21 232.79 102.78 233.37 102.78 233.37C102.338 230.683 101.069 228.201 99.1499 226.27C90.0599 228.69 81.6499 230.55 76.2199 234.39C68.8199 239.63 68.5099 245.49 72.8299 249.8C77.1499 254.11 85.7699 252.58 88.5499 251.03C91.3299 249.48 97.7899 243.33 106.42 241.79C115.05 240.25 140.94 245.49 156.04 242.4C171.14 239.31 184.04 234.4 187.48 234.4C190.64 234.4 202.62 236 211.48 231.49C207.93 228.56 194.92 217.74 189.36 208.53Z" fill="white"/>
</g>
<path d="M157.93 184.13C157.93 184.13 144.68 190.29 142.21 197.07C140.605 201.691 139.371 206.433 138.52 211.25C138.52 211.25 121.87 218.95 109.24 223.25C96.61 227.55 83.66 229.1 76.24 234.34C68.82 239.58 68.53 245.44 72.85 249.75C77.17 254.06 85.79 252.53 88.57 250.98C91.35 249.43 97.81 243.28 106.44 241.74C115.07 240.2 140.96 245.44 156.06 242.35C171.16 239.26 184.06 234.35 187.5 234.35C190.94 234.35 204.5 236.2 213.39 230.35C222.28 224.5 216.47 197.35 209.69 184.12C202.91 170.89 167.18 179.5 157.93 184.13Z" stroke="#263238" stroke-width="1.5" stroke-miterlimit="10"/>
<path d="M76.2599 244.84C77.6241 244.84 78.7299 243.734 78.7299 242.37C78.7299 241.006 77.6241 239.9 76.2599 239.9C74.8958 239.9 73.7899 241.006 73.7899 242.37C73.7899 243.734 74.8958 244.84 76.2599 244.84Z" fill="#263238"/>
<path d="M86.4299 245.76C88.9815 245.76 91.0499 243.692 91.0499 241.14C91.0499 238.588 88.9815 236.52 86.4299 236.52C83.8784 236.52 81.8099 238.588 81.8099 241.14C81.8099 243.692 83.8784 245.76 86.4299 245.76Z" fill="#263238"/>
<path d="M80.2699 250.39C81.6341 250.39 82.7399 249.284 82.7399 247.92C82.7399 246.556 81.6341 245.45 80.2699 245.45C78.9058 245.45 77.7999 246.556 77.7999 247.92C77.7999 249.284 78.9058 250.39 80.2699 250.39Z" fill="#263238"/>
<path d="M86.4299 250.39C87.7941 250.39 88.8999 249.284 88.8999 247.92C88.8999 246.556 87.7941 245.45 86.4299 245.45C85.0658 245.45 83.96 246.556 83.96 247.92C83.96 249.284 85.0658 250.39 86.4299 250.39Z" fill="#263238"/>
<path d="M178.89 211.55C193.07 226.96 203.55 233.75 218.03 235.55C232.51 237.35 251.32 235.55 265.8 229.39C280.28 223.23 283.68 219.22 283.68 219.22C287.095 217.49 290.389 215.533 293.54 213.36C300.63 208.74 313.54 195.18 316.96 177.61C319.88 162.48 317.48 145.71 309.71 132.33C300.71 116.77 284.15 108.8 266.43 108.49C255.66 108.31 245.68 112.18 236.83 118.13C219.88 129.53 215.83 139.4 215.83 139.4H198.31C198.31 139.4 189.68 136.01 173.96 152.03" fill="#A0A0A0"/>
<mask id="mask4_117_776" style="mask-type:luminance" maskUnits="userSpaceOnUse" x="173" y="108" width="146" height="129">
<path d="M178.89 211.55C193.07 226.96 203.55 233.75 218.03 235.55C232.51 237.35 251.32 235.55 265.8 229.39C280.28 223.23 283.68 219.22 283.68 219.22C287.095 217.49 290.389 215.533 293.54 213.36C300.63 208.74 313.54 195.18 316.96 177.61C319.88 162.48 317.48 145.71 309.71 132.33C300.71 116.77 284.15 108.8 266.43 108.49C255.66 108.31 245.68 112.18 236.83 118.13C219.88 129.53 215.83 139.4 215.83 139.4H198.31C198.31 139.4 189.68 136.01 173.96 152.03" fill="white"/>
</mask>
<g mask="url(#mask4_117_776)">
<path d="M305.33 182C304.18 171 298.41 183.16 296.68 187.19C293.27 195.19 294.95 168.19 289.75 161.81C284.55 155.43 290.91 177.39 289.18 184.89C287.45 192.39 288.6 179.69 284.56 172.19C280.52 164.69 286.29 182 277.64 191.81C268.99 201.62 253.4 192.39 253.4 192.39C260.64 212.88 241.28 228.61 228.87 236.28C241.13 236.34 254.73 234.15 265.8 229.44C280.29 223.28 283.68 219.27 283.68 219.27C287.095 217.54 290.389 215.583 293.54 213.41C295.481 212.097 297.308 210.621 299 209C303.82 199.35 306.14 189.68 305.33 182Z" fill="white"/>
</g>
<path d="M178.89 211.55C193.07 226.96 203.55 233.75 218.03 235.55C232.51 237.35 251.32 235.55 265.8 229.39C280.28 223.23 283.68 219.22 283.68 219.22C287.095 217.49 290.389 215.533 293.54 213.36C300.63 208.74 313.54 195.18 316.96 177.61C319.88 162.48 317.48 145.71 309.71 132.33C300.71 116.77 284.15 108.8 266.43 108.49C255.66 108.31 245.68 112.18 236.83 118.13C219.88 129.53 215.83 139.4 215.83 139.4H198.31C198.31 139.4 189.68 136.01 173.96 152.03" stroke="#263238" stroke-width="1.5" stroke-miterlimit="10"/>
<path d="M162.86 190.6C162.86 190.6 173.34 206.6 190.86 210.6C208.38 214.6 212.74 190.26 211.2 177.6C209.66 164.94 204.11 165.27 201.96 168.05C199.81 170.83 189.63 179.14 179.46 181.3C169.29 183.46 161.32 185.05 162.86 190.6Z" fill="white"/>
<path d="M149.2 122.2C145.841 121.64 142.434 121.412 139.03 121.52C134.96 121.86 126.82 125.59 123.09 126.26C119.36 126.93 121.09 128.26 125.81 133.72C130.53 139.18 141.74 142.54 141.74 142.54L149.2 122.2Z" fill="#A0A0A0" stroke="#263238" stroke-width="1.5" stroke-miterlimit="10"/>
<path d="M207.85 161.86C207.85 161.86 202.09 176.44 193.28 181.19C188.044 184.035 182.232 185.659 176.28 185.94C176.28 185.94 170.18 191.7 158.99 192.38C147.8 193.06 140.99 182.88 140.99 179.49V170.34C140.99 170.34 133.87 161.52 134.21 156.78C134.55 152.04 134.89 130.67 147.1 122.2C159.31 113.73 171.17 114.74 180.66 116.77C190.15 118.8 200.66 130.33 204.05 137.11C207.44 143.89 207.45 152.37 207.45 152.37" fill="#A0A0A0"/>
<mask id="mask5_117_776" style="mask-type:luminance" maskUnits="userSpaceOnUse" x="134" y="115" width="74" height="78">
<path d="M207.85 161.86C207.85 161.86 202.09 176.44 193.28 181.19C188.044 184.035 182.232 185.659 176.28 185.94C176.28 185.94 170.18 191.7 158.99 192.38C147.8 193.06 140.99 182.88 140.99 179.49V170.34C140.99 170.34 133.87 161.52 134.21 156.78C134.55 152.04 134.89 130.67 147.1 122.2C159.31 113.73 171.17 114.74 180.66 116.77C190.15 118.8 200.66 130.33 204.05 137.11C207.44 143.89 207.45 152.37 207.45 152.37" fill="white"/>
</mask>
<g mask="url(#mask5_117_776)">
<path d="M159.94 176.8L154.74 168.14C154.74 168.14 153.59 157.76 147.82 151.99C142.05 146.22 146 170 146 170C144.276 170.378 142.622 171.026 141.1 171.92V179.48C141.1 182.87 147.88 193.05 159.1 192.37C163.216 192.141 167.249 191.122 170.98 189.37C169.1 180.51 159.94 176.8 159.94 176.8Z" fill="white"/>
<path d="M158.32 173C158.32 173 161.73 166.18 170.68 171.29" stroke="#263238" stroke-width="2" stroke-miterlimit="10" stroke-linecap="round"/>
<path d="M139.57 164.05C139.57 164.05 142.98 161.91 143.83 167.88" stroke="#263238" stroke-width="2" stroke-miterlimit="10" stroke-linecap="round"/>
<path d="M148.94 186.64C148.94 186.64 151.07 190.47 154.49 191.75" stroke="#263238" stroke-miterlimit="10" stroke-linecap="round"/>
<path d="M162.24 150.84C162.24 150.84 164.55 158.91 176.09 160.64C187.63 162.37 191.53 157.77 187.85 153.73C184.17 149.69 164.55 150.84 162.24 150.84Z" fill="#263238"/>
<path d="M187.85 153.73C187.85 153.73 178.36 156.44 170.9 156.44C163.44 156.44 160.05 150 158.35 148C156.65 146 165.13 138.51 175.35 140.54C185.57 142.57 187.85 153.73 187.85 153.73Z" fill="#A0A0A0" stroke="#263238" stroke-width="1.5" stroke-miterlimit="10"/>
<path d="M152 186.47C152.84 185.74 153 184.53 151.39 184C149.26 183.3 145.81 182.44 146.53 184.58C146.831 185.376 147.386 186.052 148.109 186.502C148.832 186.952 149.683 187.151 150.53 187.07C151.072 187.035 151.588 186.824 152 186.47Z" fill="#263238"/>
<path d="M198 172.18C198 172.18 195.69 173.91 188.76 173.91C181.83 173.91 176.65 173.34 176.65 173.34C176.65 173.34 185.3 176.22 189.92 176.8C194.54 177.38 198 172.18 198 172.18Z" fill="#263238"/>
<path d="M191.09 180.26C191.09 180.26 187.09 183.72 182.44 181.99C177.79 180.26 172.05 177.38 172.05 177.38C172.05 177.38 186.48 181.42 191.09 180.26Z" fill="#263238"/>
<path d="M164 128.33C164 128.33 154.2 132.33 153 143.33C151.8 154.33 153 160.63 153 160.63C153 160.63 155.32 138.72 164 128.33Z" fill="#263238"/>
<path d="M148.4 130.07C148.4 130.07 142.58 132.51 141.74 142.54C140.9 152.57 140.9 159.54 140.9 159.54C140.9 159.54 143.78 138.14 148.4 130.07Z" fill="#263238"/>
</g>
<path d="M207.85 161.86C207.85 161.86 202.09 176.44 193.28 181.19C188.044 184.035 182.232 185.659 176.28 185.94C176.28 185.94 170.18 191.7 158.99 192.38C147.8 193.06 140.99 182.88 140.99 179.49V170.34C140.99 170.34 133.87 161.52 134.21 156.78C134.55 152.04 134.89 130.67 147.1 122.2C159.31 113.73 171.17 114.74 180.66 116.77C190.15 118.8 200.66 130.33 204.05 137.11C207.44 143.89 207.45 152.37 207.45 152.37" stroke="#263238" stroke-width="1.5" stroke-miterlimit="10"/>
<path d="M141.06 179.49C141.06 179.49 125.88 175.19 116.94 174.88" stroke="#263238" stroke-width="0.5" stroke-miterlimit="10" stroke-linecap="round"/>
<path d="M141.29 182C141.29 182 120.29 180.15 110.47 182" stroke="#263238" stroke-width="0.5" stroke-miterlimit="10" stroke-linecap="round"/>
<path d="M142.83 184.13C142.83 184.13 117.83 185.36 110.47 187.82" stroke="#263238" stroke-width="0.5" stroke-miterlimit="10" stroke-linecap="round"/>
<path d="M162.86 189.36C162.86 189.36 164.71 203.54 165.64 213.36" stroke="#263238" stroke-width="0.5" stroke-miterlimit="10" stroke-linecap="round"/>
<path d="M164.4 186.59C164.4 186.59 174.58 202.31 174.58 210.01" stroke="#263238" stroke-width="0.5" stroke-miterlimit="10" stroke-linecap="round"/>
<path d="M168.1 185.67C168.1 185.67 180.1 195.84 182.59 205.08" stroke="#263238" stroke-width="0.5" stroke-miterlimit="10" stroke-linecap="round"/>
<path d="M283.68 219.26C283.68 219.26 300.63 205.39 298.16 174.57" stroke="#263238" stroke-width="1.5" stroke-miterlimit="10" stroke-linecap="round"/>
<path d="M229.13 183.2C229.13 183.2 239.61 183.51 252.86 190.6C266.11 197.69 279.36 201.08 279.36 208.78C279.36 216.48 251.93 232.51 238.68 242.37C225.43 252.23 214.95 261.79 205.68 264.26C196.41 266.73 184.42 267.03 182.88 260.87C181.34 254.71 189.35 253.16 193.97 252.55C198.59 251.94 206.3 250.08 206.3 250.08L222 235C222 235 204.12 233.77 195.8 219.28" fill="#A0A0A0"/>
<mask id="mask6_117_776" style="mask-type:luminance" maskUnits="userSpaceOnUse" x="182" y="183" width="98" height="83">
<path d="M229.13 183.2C229.13 183.2 239.61 183.51 252.86 190.6C266.11 197.69 279.36 201.08 279.36 208.78C279.36 216.48 251.93 232.51 238.68 242.37C225.43 252.23 214.95 261.79 205.68 264.26C196.41 266.73 184.42 267.03 182.88 260.87C181.34 254.71 189.35 253.16 193.97 252.55C198.59 251.94 206.3 250.08 206.3 250.08L222 235C222 235 204.12 233.77 195.8 219.28" fill="white"/>
</mask>
<g mask="url(#mask6_117_776)">
<path d="M204.94 228.15C204.94 228.15 215.32 227 221.09 217.76C226.86 208.52 228.59 196.99 228.59 196.99C228.59 196.99 228.59 210.26 224.59 218.92C220.59 227.58 204.94 228.15 204.94 228.15Z" fill="#263238"/>
<path d="M237.25 191.8C237.25 191.8 243.02 203.34 237.83 212.57C234.693 218.116 230.106 222.703 224.56 225.84C224.56 225.84 239.56 212 237.25 191.8Z" fill="#263238"/>
<path d="M219.94 243.15L228.59 248.92C228.59 248.92 228 241.42 219.94 243.15Z" fill="#263238"/>
<path d="M228 234.5L236.65 240.27C236.65 240.27 236.1 232.76 228 234.5Z" fill="#263238"/>
<path d="M243.6 224.69L252.25 230.46C252.25 230.46 251.67 223 243.6 224.69Z" fill="#263238"/>
<path d="M252.83 216L261.48 221.77C261.48 221.77 260.91 214.3 252.83 216Z" fill="#263238"/>
<path d="M210.76 257C210.17 254.23 206.61 252.14 203.4 250.78C200.74 251.37 196.8 252.2 193.99 252.58C189.37 253.19 181.36 254.73 182.9 260.9C184.44 267.07 196.46 266.75 205.7 264.29C208.033 263.619 210.278 262.676 212.39 261.48C211.648 260.067 211.099 258.56 210.76 257Z" fill="white"/>
<path d="M247.63 216C251.63 210.23 246.48 218.31 234.36 225.81C222.24 233.31 204.94 228.12 204.94 228.12L204.39 228.48C209.641 232.055 215.687 234.293 222 235L215 241.77C227.88 237 243.85 221.44 247.63 216Z" fill="white"/>
</g>
<path d="M229.13 183.2C229.13 183.2 239.61 183.51 252.86 190.6C266.11 197.69 279.36 201.08 279.36 208.78C279.36 216.48 251.93 232.51 238.68 242.37C225.43 252.23 214.95 261.79 205.68 264.26C196.41 266.73 184.42 267.03 182.88 260.87C181.34 254.71 189.35 253.16 193.97 252.55C198.59 251.94 206.3 250.08 206.3 250.08L222 235C222 235 204.12 233.77 195.8 219.28" stroke="#263238" stroke-width="1.5" stroke-miterlimit="10"/>
<path d="M222 235C222 235 247.27 230.07 250.35 208.8" stroke="#263238" stroke-width="1.5" stroke-miterlimit="10" stroke-linecap="round"/>
<path d="M182.9 260.87C182.9 260.87 185.36 256.24 189.06 255.63" stroke="#263238" stroke-width="1.5" stroke-miterlimit="10" stroke-linecap="round"/>
<path d="M186.9 264.26C186.9 264.26 188.75 257.48 194.3 257.48" stroke="#263238" stroke-width="1.5" stroke-miterlimit="10" stroke-linecap="round"/>
<path d="M224 141.6C224 141.6 241.31 143.34 254 156.03C266.69 168.72 269 192.38 269 186.03C269 179.68 265.54 162.38 258 153.14C250.46 143.9 229.17 138.72 224 141.6Z" fill="#263238"/>
<path d="M210.49 148.28C210.49 148.28 224.42 149.67 234.63 159.88C244.84 170.09 246.7 189.13 246.7 184C246.7 178.87 243.91 165 237.88 157.54C231.85 150.08 214.67 146 210.49 148.28Z" fill="#263238"/>
<path d="M234.94 131.8C234.94 131.8 252.25 133.53 264.94 146.22C277.63 158.91 279.94 182.57 279.94 176.22C279.94 169.87 276.48 152.57 268.94 143.34C261.4 134.11 240.13 128.91 234.94 131.8Z" fill="#263238"/>
<path d="M249.37 115.06C249.37 115.06 266.67 116.79 279.37 129.49C292.07 142.19 294.37 165.84 294.37 159.49C294.37 153.14 290.91 135.83 283.37 126.6C275.83 117.37 254.56 112.18 249.37 115.06Z" fill="#263238"/>
<path d="M82.92 277.93C89.5475 277.93 94.92 275.423 94.92 272.33C94.92 269.237 89.5475 266.73 82.92 266.73C76.2926 266.73 70.92 269.237 70.92 272.33C70.92 275.423 76.2926 277.93 82.92 277.93Z" fill="#263238"/>
<path d="M78.73 275.96C87.7488 275.96 95.06 268.649 95.06 259.63C95.06 250.611 87.7488 243.3 78.73 243.3C69.7112 243.3 62.4 250.611 62.4 259.63C62.4 268.649 69.7112 275.96 78.73 275.96Z" fill="#A0A0A0" stroke="#263238" stroke-width="1.5" stroke-miterlimit="10"/>
<path d="M78.0801 252.22C78.0467 253.08 77.7612 253.912 77.259 254.611C76.7568 255.31 76.0601 255.846 75.2556 256.153C74.4511 256.459 73.5742 256.522 72.7341 256.334C71.8941 256.146 71.1278 255.715 70.5308 255.095C69.9337 254.475 69.5322 253.692 69.3761 252.846C69.22 251.999 69.3163 251.125 69.653 250.333C69.9897 249.541 70.5519 248.865 71.2697 248.39C71.9875 247.914 72.8292 247.661 73.6901 247.66C74.278 247.67 74.858 247.797 75.397 248.032C75.936 248.267 76.4234 248.606 76.8312 249.029C77.239 249.453 77.5592 249.953 77.7735 250.5C77.9878 251.048 78.092 251.632 78.0801 252.22Z" fill="white"/>
</svg>
