<svg aria-hidden="true" class="valign-middle caretIcon self-center ml-auto selectIcon sb-animator-fadeGrow-appear-done sb-animator-fadeGrow-enter-done" focusable="false" preserveAspectRatio="xMidYMid meet" viewBox="0 0 24 24" style="width: 24px; height: 24px; overflow: visible; fill: currentcolor; transition-delay: 100ms;"><path d="M7.01985 11.5762L11.2798 15.1261C11.697 15.4738 12.303 15.4738 12.7202 15.1261L16.9801 11.5762C17.2983 11.311 17.3413 10.8381 17.0762 10.5199C16.811 10.2017 16.3381 10.1587 16.0199 10.4239L12 13.7737L7.98013 10.4239C7.66192 10.1587 7.189 10.2017 6.92382 10.5199C6.65865 10.8381 6.70164 11.311 7.01985 11.5762Z"></path><path d="M22 12C22 6.47715 17.5228 2 12 2C6.47715 2 2 6.47715 2 12C2 17.5228 6.47715 22 12 22C17.5228 22 22 17.5228 22 12ZM20.5 12C20.5 16.6944 16.6944 20.5 12 20.5C7.30558 20.5 3.5 16.6944 3.5 12C3.5 7.30558 7.30558 3.5 12 3.5C16.6944 3.5 20.5 7.30558 20.5 12Z"></path></svg>